Coordinates
version=1
nRows=11
nColumns=33
inDegrees=yes

Units are S.I. units (second, meters, Newtons, ...)
Angles are in degrees.

endheader
time	ground_thorax_rot_x	ground_thorax_rot_y	ground_thorax_rot_z	ground_thorax_tx	ground_thorax_ty	ground_thorax_tz	clav_prot_r	clav_elev_r	scapula_abduction_r	scapula_elevation_r	scapula_upward_rot_r	scapula_winging_r	shoulder_elv_r	plane_of_elev_r	axial_rot_r	elbow_flexion_r	pro_sup_r	wrist_flex_r	wrist_dev_r	clav_prot_l	clav_elev_l	scapula_abduction_l	scapula_elevation_l	scapula_upward_rot_l	scapula_winging_l	shoulder_elv_l	plane_of_elev_l	axial_rot_l	elbow_flexion_l	pro_sup_l	wrist_flex_l	wrist_dev_l	
2.6800	-39.892708	-2.333001	-5.033400	-5.719644	801.950055	2.685631	3.844452	-45.000000	45.000000	-45.000000	-5.889432	-3327.350212	-1376.599004	30.389407	67.703022	735.983667	72.172651	18.772955	6.976469	15.029765	42.431238	-45.000000	-40.256604	-20.445768	2238.583331	-3341.982518	135.569400	179.999323	364.694428	-353.621155	14.804573	-16.712996	
2.6900	-39.749202	-2.694684	-4.954795	-4.056606	800.516467	3.156667	4.025354	-45.000000	44.999999	-45.000000	-6.087901	-3327.192514	-1376.882261	29.963733	69.763100	733.931262	48.838849	18.101152	8.841691	14.804303	42.013098	-45.000000	-39.869076	-20.449193	2238.549953	-3341.892135	135.588583	179.998791	364.606825	-350.731207	14.404406	-16.940140	
2.7000	-39.593964	-3.000775	-4.935662	-2.501974	799.153671	3.597957	4.168368	-45.000000	44.999999	-45.000000	-6.183554	-3327.029502	-1377.161358	29.506977	71.827330	731.781164	24.472716	17.412806	10.800626	14.532021	41.652361	-45.000000	-39.498498	-20.330297	2238.492696	-3341.836991	135.671572	179.997824	364.575740	-347.489650	13.952681	-17.233930	
2.7100	-39.454821	-3.273525	-4.956589	-1.173553	797.954291	3.981101	4.246439	-45.000000	44.999998	-45.000000	-6.296420	-3326.882532	-1377.352011	29.215020	73.190483	730.577109	11.260860	16.996026	11.845482	14.392804	41.359149	-44.999999	-39.206560	-20.282754	2238.439434	-3341.807740	135.719650	179.996133	364.458733	-346.025853	13.688372	-17.317226	
2.7200	-39.321671	-3.503274	-5.024637	-0.099553	796.915891	4.296703	4.270666	-45.000000	44.999996	-45.000000	-6.379408	-3326.747618	-1377.480823	29.003926	74.138070	729.884305	4.026243	16.735537	12.410813	14.309247	41.140478	-44.999999	-38.969300	-20.221756	2238.393097	-3341.803645	135.773706	179.992987	364.328738	-345.383480	13.495147	-17.322124	
2.7300	-39.198424	-3.686106	-5.138021	0.675943	796.046205	4.532782	4.255424	-45.000000	44.999993	-45.000000	-6.436038	-3326.642300	-1377.567173	28.871983	74.713779	729.613166	1.808708	16.610026	12.566804	14.267282	40.997034	-44.999998	-38.791645	-20.152310	2238.361569	-3341.813939	135.820507	179.987679	364.195810	-345.380393	13.364993	-17.272380	
2.7400	-39.081502	-3.837647	-5.274074	1.134052	795.326321	4.684230	4.216630	-45.000000	44.999987	-45.000000	-6.477713	-3326.563230	-1377.616469	28.772232	75.079297	729.547760	1.948200	16.559664	12.539116	14.239640	40.914283	-44.999996	-38.652360	-20.062161	2238.354561	-3341.834293	135.871232	179.977386	364.083523	-345.571186	13.238531	-17.224893	
2.7500	-38.974023	-3.955094	-5.429173	1.269347	794.725728	4.750617	4.181620	-45.000000	44.999977	-45.000000	-6.505365	-3326.532385	-1377.664632	28.694537	75.363988	729.488769	2.225910	16.531324	12.493004	14.199272	40.877846	-44.999993	-38.555560	-19.961629	2238.371767	-3341.852667	135.909242	179.961263	364.005095	-345.598069	13.106286	-17.219473	
2.7600	-38.870450	-4.071596	-5.565164	1.079501	794.215976	4.734168	4.154647	-45.000000	44.999958	-45.000000	-6.561262	-3326.536341	-1377.689180	28.621086	75.598975	729.449521	2.652156	16.522850	12.436129	14.161542	40.859185	-44.999988	-38.473483	-19.876545	2238.423793	-3341.875817	135.946474	179.926648	363.949980	-345.520585	12.951507	-17.244770	
2.7700	-38.774931	-4.172927	-5.692492	0.565537	793.771668	4.639250	4.151121	-45.000000	44.999925	-45.000000	-6.643986	-3326.591504	-1377.714905	28.574531	75.790564	729.411084	3.232325	16.531229	12.349108	14.124404	40.857887	-44.999979	-38.428145	-19.836363	2238.491169	-3341.899242	135.965215	179.881243	363.914715	-345.364633	12.818630	-17.291134	
2.7800	-38.677949	-4.277689	-5.792657	-0.268835	793.371839	4.472046	4.159839	-45.000000	44.999866	-45.000000	-6.766040	-3326.681271	-1377.720587	28.532783	75.969007	729.388509	3.961554	16.553562	12.244931	14.101104	40.853293	-44.999962	-38.390042	-19.835019	2238.580079	-3341.933790	135.987180	179.809166	363.894521	-345.161863	12.677009	-17.355041	
